<svg xmlns="http://www.w3.org/2000/svg">
	<defs>
		<!--start icons--> 
		<symbol id="icon-download" viewBox="0 0 16 17">
			<path d="M3.33331 13.6713H12.6666C12.8637 13.6713 13.0534 13.7462 13.1974 13.8807C13.3414 14.0152 13.4289 14.1994 13.4424 14.396C13.4558 14.5926 13.3941 14.787 13.2698 14.9399C13.1454 15.0927 12.9676 15.1927 12.7724 15.2195L12.6666 15.2268H3.33331C3.13625 15.2267 2.94656 15.1519 2.80256 15.0174C2.65857 14.8828 2.57101 14.6986 2.55758 14.502C2.54415 14.3054 2.60585 14.1111 2.7302 13.9582C2.85456 13.8053 3.03231 13.7054 3.22753 13.6785L3.33331 13.6713H12.6666H3.33331ZM7.8942 1.23407L7.99998 1.22681C8.18793 1.22681 8.36952 1.29488 8.51117 1.41842C8.65281 1.54195 8.74494 1.7126 8.7705 1.89881L8.77776 2.00458V9.97732L11.1163 7.63984C11.2482 7.508 11.423 7.42794 11.609 7.41423C11.795 7.40053 11.9797 7.4541 12.1295 7.56518L12.2166 7.63984C12.3484 7.77173 12.4285 7.94659 12.4422 8.13256C12.4559 8.31854 12.4023 8.50324 12.2912 8.65303L12.2166 8.74014L8.54961 12.4061C8.41792 12.5378 8.24333 12.6179 8.05758 12.6318C7.87184 12.6457 7.68728 12.5924 7.53746 12.4818L7.45035 12.4061L3.78339 8.74014C3.64422 8.60136 3.56276 8.41504 3.55537 8.21864C3.54799 8.02224 3.61523 7.83033 3.74358 7.68149C3.87192 7.53265 4.05186 7.43792 4.24721 7.41634C4.44256 7.39476 4.63883 7.44794 4.79657 7.56518L4.88368 7.63984L7.2222 9.9794V2.00458C7.22221 1.81663 7.29027 1.63504 7.41381 1.4934C7.53735 1.35175 7.708 1.25963 7.8942 1.23407L7.99998 1.22681L7.8942 1.23407Z"/>
		</symbol>
		<symbol id="icon-plus" viewBox="0 0 16 16">
			<path d="M13.754 6.957H9.006V2.293c0-.577-.447-1.043-.997-1.043-.549 0-.996.466-.996 1.043v4.664H2.246c-.55 0-.996.466-.996 1.043s.447 1.043.996 1.043h4.758v4.655c0 .577.447 1.043.996 1.043.55 0 .996-.466.996-1.043V9.043h4.748c.55 0 .997-.466.997-1.043s-.447-1.043-.996-1.043h.009Z" />
		</symbol>
		<symbol id="icon-minus" viewBox="0 0 16 16">
			<path d="M9.006 6.957h4.739c.549 0 .996.466.996 1.043s-.447 1.043-.996 1.043H2.246c-.55 0-.996-.466-.996-1.043s.447-1.043.996-1.043h6.76Z" />
		</symbol>

		<symbol id="icon-staff" viewBox="0 0 101 72">
			<path d="M80.457 23.99c6.612 0 11.994-5.382 11.994-11.995C92.451 5.382 87.07 0 80.457 0c-6.613 0-11.995 5.381-11.995 11.995 0 6.613 5.381 11.995 11.995 11.995Zm0-20.805c4.861 0 8.81 3.948 8.81 8.81 0 4.861-3.949 8.81-8.81 8.81-4.862 0-8.81-3.949-8.81-8.81 0-4.862 3.948-8.81 8.81-8.81ZM80.457 28.427c-4.363 0-8.62 1.507-12.006 4.245a1.597 1.597 0 0 0-.233 2.24c.552.68 1.56.796 2.24.233 2.855-2.314 6.316-3.535 10-3.535 8.778 0 15.921 7.144 15.921 15.922v17.441a1.59 1.59 0 0 0 1.591 1.592 1.59 1.59 0 0 0 1.592-1.592v-17.45c0-10.53-8.576-19.097-19.106-19.097ZM19.506 23.99c6.613 0 11.994-5.382 11.994-11.995C31.5 5.382 26.12 0 19.506 0 12.893 0 7.51 5.381 7.51 11.995c0 6.613 5.382 11.995 11.995 11.995Zm0-20.805c4.861 0 8.81 3.948 8.81 8.81 0 4.861-3.949 8.81-8.81 8.81-4.862 0-8.81-3.949-8.81-8.81 0-4.862 3.948-8.81 8.81-8.81ZM31.745 34.902a1.598 1.598 0 0 0-.233-2.24 19.133 19.133 0 0 0-12.006-4.245C8.976 28.416.4 36.981.4 47.523v17.45a1.59 1.59 0 0 0 1.592 1.592 1.59 1.59 0 0 0 1.592-1.592v-17.45c0-8.778 7.143-15.922 15.922-15.922 3.683 0 7.143 1.22 10 3.535.69.562 1.686.456 2.239-.234ZM49.981 29.414c6.613 0 11.995-5.381 11.995-11.994 0-6.613-5.382-11.995-11.995-11.995-6.613 0-11.995 5.381-11.995 11.995 0 6.612 5.383 11.994 11.995 11.994Zm0-20.804c4.861 0 8.81 3.948 8.81 8.81 0 4.861-3.948 8.81-8.81 8.81-4.861 0-8.81-3.949-8.81-8.81 0-4.862 3.949-8.81 8.81-8.81ZM49.981 33.852c-10.53 0-19.106 8.566-19.106 19.106v17.45A1.59 1.59 0 0 0 32.467 72a1.59 1.59 0 0 0 1.592-1.592v-17.45c0-8.778 7.144-15.922 15.922-15.922 8.779 0 15.922 7.144 15.922 15.922v17.45A1.59 1.59 0 0 0 67.495 72a1.59 1.59 0 0 0 1.592-1.592v-17.45c0-10.54-8.576-19.106-19.106-19.106Z" fill="#F54C00"/>
		</symbol>
		<symbol id="icon-women" viewBox="0 0 20 32">
			<path d="M9.582 6.906a3.453 3.453 0 1 0 0-6.906 3.453 3.453 0 0 0 0 6.906ZM19.226 17.728 16.923 9.13l-.006-.02-.04-.151-.006.002a1.62 1.62 0 0 0-1.542-1.133l-.017.002V7.8H4.472v.028c-.726 0-1.333.478-1.543 1.133l-.005-.002-.041.151-.006.02-2.303 8.597.022.006c-.01.07-.022.142-.022.215a1.467 1.467 0 0 0 2.292 1.213c.244-.167.43-.402.538-.676l.01.003 1.69-6.306v.024h.013a.457.457 0 0 1 .445-.367c.221 0 .398.159.444.367h.013v.068c.001.01.007.02.007.03 0 .01-.006.019-.007.03v.064L3.314 22.495a.784.784 0 0 0-.078.29l-.005.02.003.002c0 .011-.003.022-.003.034 0 .435.352.787.787.787h2v6.674a1.698 1.698 0 1 0 3.397 0v-6.674h.965v6.674a1.698 1.698 0 0 0 3.396 0v-6.674h2.007a.787.787 0 0 0 .788-.787c0-.012-.003-.023-.004-.034l.004-.001-.006-.021a.784.784 0 0 0-.078-.29L13.79 12.429l.009-.002c-.012-.04-.025-.08-.025-.123 0-.256.207-.464.464-.464.218 0 .392.154.442.357l.018-.005 1.687 6.296.01-.003a1.465 1.465 0 0 0 2.83-.536c0-.074-.011-.145-.022-.216l.023-.005Z" fill="#002945"/>
		</symbol>
		<symbol id="icon-men" viewBox="0 0 17 32">
			<path d="M8.13 6.905A3.452 3.452 0 1 0 8.13 0a3.452 3.452 0 0 0 0 6.905ZM14.668 7.833v-.016H2.298v.01A1.626 1.626 0 0 0 .674 9.443v9.783h.015a1.45 1.45 0 1 0 2.903 0h.003v-6.83h.004a.46.46 0 0 1 .92 0h.004v17.908a1.698 1.698 0 0 0 3.395-.002v-9.017h.013a.47.47 0 1 1 .94 0h.012v9.017a1.699 1.699 0 0 0 3.396 0V12.396a.464.464 0 1 1 .928 0v6.83h.016a1.452 1.452 0 0 0 2.903 0h.003V9.441c0-.84-.64-1.525-1.46-1.609Z" fill="#002945"/>
		</symbol>
		<symbol id="icon-newstaff" viewBox="0 0 73 72">
			<path d="M34.093 29.031v4.59a1.33 1.33 0 0 0 1.326 1.325 1.33 1.33 0 0 0 1.327-1.325v-4.59a1.33 1.33 0 0 0-1.327-1.324 1.33 1.33 0 0 0-1.326 1.324Z" fill="#FF7800"/><path d="M17.915 34.946a1.33 1.33 0 0 0 1.326-1.325v-5.784a4.414 4.414 0 0 1 4.409-4.403h11.844a4.414 4.414 0 0 1 4.409 4.403v5.784a1.33 1.33 0 0 0 1.326 1.325 1.33 1.33 0 0 0 1.327-1.325v-5.784c0-3.88-3.158-7.034-7.043-7.034H32.99c2.185-1.25 3.587-3.694 3.587-6.642 0-4.328-3.494-6.605-6.931-6.605-1.794 0-3.494.579-4.783 1.624-1.476 1.212-2.28 2.966-2.28 4.981 0 2.948 1.42 5.392 3.588 6.642H23.65c-3.886 0-7.062 3.153-7.062 7.034v5.784a1.33 1.33 0 0 0 1.326 1.325Zm7.304-20.785c0-2.724 2.28-3.955 4.409-3.955 2.13 0 4.278 1.231 4.278 3.955s-1.83 4.888-4.334 4.888c-2.503 0-4.334-2.052-4.334-4.888h-.019Z" fill="#FF7800"/><path d="M65.833 17.78c0-.335-.168-.652-.392-.876L48.907.392A1.366 1.366 0 0 0 48.03 0H10.834a3.872 3.872 0 0 0-3.867 3.862v64.276A3.872 3.872 0 0 0 10.834 72h51.132c2.092 0 3.867-1.772 3.867-3.862V17.78ZM49.3 4.516l12.012 11.997H50.514A1.211 1.211 0 0 1 49.3 15.3V4.515Zm13.899 63.623c0 .634-.58 1.213-1.215 1.213H10.853c-.654 0-1.214-.56-1.214-1.213V3.862c0-.672.541-1.213 1.214-1.213h35.813v12.669a3.872 3.872 0 0 0 3.867 3.862h12.684v48.977l-.018-.02Z" fill="#002945"/><path d="M41.042 59.593H17.914a1.33 1.33 0 0 0-1.326 1.324 1.33 1.33 0 0 0 1.326 1.325h23.128a1.33 1.33 0 0 0 1.327-1.325 1.33 1.33 0 0 0-1.327-1.324ZM54.904 50.562h-36.99a1.33 1.33 0 0 0-1.326 1.325 1.33 1.33 0 0 0 1.326 1.325h36.99a1.33 1.33 0 0 0 1.326-1.325 1.33 1.33 0 0 0-1.326-1.325ZM16.588 42.857a1.33 1.33 0 0 0 1.326 1.324h36.99a1.33 1.33 0 0 0 1.326-1.324 1.33 1.33 0 0 0-1.326-1.325h-36.99a1.33 1.33 0 0 0-1.326 1.325Z" fill="#002945"/><path d="M22.36 29.031v4.59a1.33 1.33 0 0 0 1.327 1.325 1.33 1.33 0 0 0 1.327-1.325v-4.59a1.33 1.33 0 0 0-1.327-1.324 1.33 1.33 0 0 0-1.326 1.324Z" fill="#FF7800"/>
		</symbol>
		<symbol id="icon-learningstaff" viewBox="0 0 80 72">
			<path d="M43.583 17.567c.824 0 1.495-.673 1.495-1.498v-1.116c0-.826-.671-1.498-1.495-1.498-.824 0-1.495.672-1.495 1.498v1.116c0 .825.671 1.498 1.495 1.498Z" fill="#FFA617"/><path d="M28.953 21.71c.442.32.946.504 1.48.534 1.724 4.8 5.568 8.3 9.61 8.5 3.906-.2 7.75-3.715 9.474-8.53a2.804 2.804 0 0 0 1.16-.505 2.894 2.894 0 0 0 1.174-1.941l.641-4.31a2.945 2.945 0 0 0-1.098-2.768c-.061-.168-.122-.351-.199-.55.016-.244.03-.504.03-.749v-1.59c0-3.454-1.998-6.557-4.957-7.841a18.145 18.145 0 0 0-1.968-.933c-2.73-1.085-5.263-1.33-6.758-.642a2.65 2.65 0 0 0-1.083.841c-4.455.122-8.055 3.913-8.055 8.575v1.59c0 .367.03.734.06 1.1v.047c-.96.596-1.51 1.742-1.342 2.934l.641 4.311c.122.78.534 1.468 1.16 1.941l.03-.015Zm7.734-17.473h.809c.412 0 .808-.168 1.098-.473a1.51 1.51 0 0 0 .367-.688c.61-.138 2.196-.046 4.24.764.58.23 1.114.49 1.74.825 1.296.566 2.303 1.636 2.837 2.92-.87-.703-1.846-1.238-2.914-1.467a1.499 1.499 0 0 0-1.464.504c-1.877 2.232-4.317 1.957-6.896 1.65-1.54-.183-3.386-.381-4.958.23.55-2.446 2.64-4.265 5.126-4.265h.015ZM30.48 15.014a1.535 1.535 0 0 0 1.037-.688c.229-.367.29-.825.152-1.238a3.495 3.495 0 0 1-.106-.428c.61-1.758 1.739-1.727 4.622-1.406 2.563.29 5.995.688 8.802-1.942 1.312.642 2.457 2.14 3.112 3.302-.03.153-.076.321-.122.474-.122.413-.076.871.153 1.238.229.367.61.627 1.037.688h.367l-.626 4.219-.229-.03c-.763-.108-1.48.336-1.693 1.085-1.13 4.111-4.18 7.322-6.941 7.474-2.93-.152-5.98-3.378-7.11-7.505a1.502 1.502 0 0 0-1.449-1.1c-.076 0-.152 0-.244.015l-.503.076-.732-4.142.473-.077v-.015Z" fill="#FFA617"/><path d="m79.54 68.56-7.765-10.99a4.478 4.478 0 0 0 .717-2.461v-36.58a4.569 4.569 0 0 0-4.562-4.57H55.97a1.499 1.499 0 0 0 0 2.996h11.96c.84 0 1.556.719 1.556 1.56v36.594c0 .84-.732 1.56-1.556 1.56h-2.486v-.047l1.22-14.109v-1.207c0-3.394-3.005-5.549-5.995-6.191-3.31-.703-9.413-2.232-11.304-3.608a1.391 1.391 0 0 0-.641-.26l-.153-.03c-.839-.122-1.51.443-1.647 1.254-.107.626.244 1.238.778 1.543 2.776 1.911 10.114 3.562 12.326 4.02 1.343.291 3.616 1.285 3.616 3.241v1.086l-1.206 13.986v.306H45.383v-.367l-2.487-16.157 2.09-5.61a1.517 1.517 0 0 0-.167-1.376 1.517 1.517 0 0 0-1.236-.642h-7.17c-.488 0-.946.245-1.236.642-.29.398-.35.917-.168 1.376l2.09 5.61-2.563 16.157c-.015.122-.03.26 0 .382H17.542v-.306l-1.205-13.849v-1.207c0-1.957 2.273-2.966 3.615-3.24 2.166-.46 9.245-2.05 12.159-3.914.686-.214 1.083-.917.96-1.666-.121-.826-.96-1.376-1.784-1.238-.229.03-.442.122-.64.26-1.892 1.36-7.995 2.904-11.305 3.607-2.975.627-5.995 2.782-5.995 6.19v1.346l1.22 13.987v.046h-2.563c-.808-.031-1.51-.75-1.51-1.56V18.53c0-.856.702-1.56 1.571-1.56h12.052a1.499 1.499 0 0 0 0-2.995H12.05a4.569 4.569 0 0 0-4.561 4.57V55.14c0 .901.259 1.758.717 2.46L.44 68.577a1.87 1.87 0 0 0-.122 1.987C.807 71.496 1.966 72 2.82 72h74.37c.87 0 2.045-.52 2.518-1.468.32-.657.259-1.39-.168-1.956v-.015ZM41.432 35.529l-1.434 3.837-1.434-3.837H41.432Zm-1.434 5.457 2.41 15.699h-4.912l2.487-15.7h.015ZM3.843 68.973l6.742-9.523c.443.153.931.245 1.42.245H67.93c.52 0 1.023-.092 1.495-.245l6.743 9.554H3.843v-.03Z" fill="#FFA617"/><path d="M37.023 23.971c.763.734 1.815 1.101 2.914 1.101 1.098 0 2.09-.336 2.944-1.009.656-.52.763-1.467.244-2.11a1.5 1.5 0 0 0-2.105-.244c-.626.49-1.54.459-1.922.092a1.509 1.509 0 0 0-2.12.046c-.58.596-.55 1.544.045 2.124ZM36.413 17.567c.824 0 1.495-.673 1.495-1.498v-1.116c0-.826-.671-1.498-1.495-1.498-.824 0-1.495.672-1.495 1.498v1.116c0 .825.671 1.498 1.495 1.498Z" fill="#FFA617"/>
		</symbol>
		<symbol id="icon-education" viewBox="0 0 104 56">
			<path d="M51.225.144 2.771 18.449a2.21 2.21 0 0 0-1.36 2.002c0 .857.563 1.686 1.36 2.002l6.157 2.321v11.61a3.207 3.207 0 0 0-1.077 2.388 3.23 3.23 0 0 0 6.461 0c0-.952-.421-1.798-1.077-2.389V26.39l7.437 2.826-.976 13.696c-.16 2.25 1.26 3.984 3.028 5.417 1.77 1.433 4.141 2.681 7.033 3.802C35.54 54.375 43.377 56 52 56c8.621 0 16.458-1.625 22.243-3.87 2.891-1.122 5.263-2.37 7.032-3.802 1.769-1.433 3.19-3.167 3.028-5.417l-.975-13.696 17.901-6.763a2.21 2.21 0 0 0 1.361-2.002 2.21 2.21 0 0 0-1.361-2.002L52.775.143c-.637-.262-1.186-.104-1.548 0h-.002ZM52 4.45l42.397 16.017L52 36.452 9.6 20.468 52 4.45ZM24.878 30.797l26.346 9.96a2.18 2.18 0 0 0 1.548 0l26.346-9.96.875 12.416s-.169.742-1.413 1.75-3.292 2.155-5.889 3.163c-5.196 2.016-12.612 3.567-20.693 3.567-8.08 0-15.499-1.551-20.693-3.567-2.598-1.008-4.645-2.156-5.889-3.163-1.244-1.008-1.413-1.752-1.413-1.75l.875-12.416Z" fill="#91CCD5"/>
		</symbol>
		<symbol id="icon-openings" viewBox="0 0 82 72">
			<g><path d="M72.46 36.635c-2.392-1.644-5.256-2.246-8.055-1.71-2.62.505-4.867 1.97-6.315 4.118a9.598 9.598 0 0 0-1.302 2.735l-6.51-4.444c-.326-1.318-.667-2.766-1.042-4.264h32.631l-5.175-10.562 5.175-10.562H44.42C41.815 3.58 35.224.896 34.947.78L32.994 0l2.295 11.946H.9l5.175 10.562L.9 33.071h26.74c4.557 3.32 9.862 7.307 13.654 10.188l1.498 7.763c-.993-.13-2.019-.082-3.011.097-2.653.505-4.932 2.067-6.429 4.41-1.48 2.312-2.002 5.111-1.48 7.862.52 2.75 2.05 5.143 4.28 6.737 1.724 1.237 3.726 1.888 5.76 1.888.62 0 1.238-.065 1.84-.179 5.452-1.058 9-6.559 7.893-12.271 0 0-1.562-8.154-1.953-10.188-.098-.472.195-1.156.765-1.953.928-.212 1.709-.195 2.083.065 1.709 1.172 8.56 5.843 8.56 5.843 2.393 1.627 5.258 2.23 8.04 1.709 2.62-.505 4.867-1.953 6.331-4.118 3.125-4.606 1.758-11.018-3.027-14.29h.017Zm5.73-22.378-4.053 8.251 4.052 8.252H48.7c-1.757-7.324-2.994-12.858-3.678-16.438v-.065H78.19Zm-35.805-1.058.048.195c.114.44.228.88.31 1.351.032.13.048.277.081.407.049.244.098.504.147.765.748 3.776 1.985 9.228 3.678 16.242l.211.879c.196.797.374 1.562.57 2.327L41.327 31.2 36.119 4.085c1.985 1.4 4.898 4.183 6.266 9.13V13.2Zm-37.79 17.56 4.052-8.25-4.053-8.252h31.134l3.174 16.502H4.594Zm26.95 2.312h8.398l7.487 5.11c-.147-.065-.31-.098-.472-.13a2.9 2.9 0 0 0-3.076 4.296l-.846-.65c-3.158-2.393-7.438-5.632-11.49-8.61v-.017Zm15.152 8.283c-.13.082-.276.114-.439.082a.609.609 0 0 1-.358-.244.595.595 0 0 1 .163-.814.536.536 0 0 1 .309-.098h.114a.555.555 0 0 1 .358.244.594.594 0 0 1-.163.814l.017.016ZM43.33 69.56c-2.019.39-4.085-.082-5.827-1.319-1.758-1.253-2.946-3.14-3.352-5.305a8.418 8.418 0 0 1 1.155-6.168c1.156-1.79 2.897-2.995 4.915-3.385.456-.082.928-.13 1.383-.13.765 0 1.547.113 2.295.357l1.855.603-1.708-8.854 2.473 1.872c.342.26.733.455 1.14.553-.26.716-.326 1.383-.212 2.034L49.4 60.005c.863 4.46-1.855 8.756-6.07 9.57v-.016Zm30.255-19.937c-1.123 1.644-2.849 2.767-4.867 3.141-2.18.407-4.426-.065-6.314-1.35 0 0-6.836-4.672-8.56-5.843-.603-.407-1.368-.619-2.247-.619-.634 0-1.334.114-2.067.326-.309.065-.586.162-.83.244a.828.828 0 0 1-.797-.13l-2.279-1.742s.098.033.163.033a2.9 2.9 0 0 0 2.165-.423 2.904 2.904 0 0 0 .83-4.004 2.119 2.119 0 0 0-.293-.374l10.058 6.868.179-1.953a7.216 7.216 0 0 1 1.253-3.483c1.106-1.644 2.832-2.767 4.833-3.141 2.181-.423 4.427.065 6.315 1.35 3.743 2.556 4.834 7.536 2.425 11.084l.032.016Z"/><path d="M70.491 39.515c-1.61-1.09-3.58-1.53-5.436-1.172-1.708.326-3.173 1.27-4.117 2.653-2.05 3.011-1.09 7.243 2.116 9.44a7.404 7.404 0 0 0 4.15 1.302c.423 0 .862-.033 1.286-.114 1.708-.326 3.173-1.27 4.117-2.653 2.05-3.027 1.09-7.259-2.116-9.44v-.016Zm.212 8.154c-.602.879-1.53 1.481-2.637 1.693-1.253.227-2.604-.066-3.694-.814-2.165-1.481-2.848-4.264-1.514-6.233.603-.88 1.53-1.481 2.637-1.693.277-.049.57-.081.862-.081.993 0 1.986.309 2.849.895 2.164 1.48 2.848 4.28 1.513 6.233h-.016ZM45.216 55.546c-1.432-.976-3.124-1.334-4.784-1.009-3.565.684-5.876 4.362-5.143 8.186.667 3.402 3.515 5.794 6.64 5.794.39 0 .781-.032 1.172-.114 3.564-.683 5.875-4.361 5.143-8.186-.375-1.92-1.481-3.613-3.044-4.67h.016Zm-2.538 10.595c-2.311.456-4.622-1.286-5.11-3.857-.489-2.572.992-5.045 3.32-5.501.244-.049.488-.065.732-.065.813 0 1.61.244 2.31.732 1.059.716 1.807 1.888 2.068 3.206.488 2.572-.993 5.046-3.32 5.485Z"/></g>
		</symbol>
		<symbol id="icon-screenlogo" viewBox="0 0 86 72">
			<g><path d="M56.819 72H28.723a1.206 1.206 0 1 1 0-2.414h7.498v-7.87H6.653C2.983 61.716 0 58.732 0 55.053v-48.4A6.66 6.66 0 0 1 6.653 0H78.88a6.659 6.659 0 0 1 6.653 6.653v48.42c0 3.67-2.983 6.662-6.653 6.662H49.321v7.87h7.498a1.206 1.206 0 1 1 0 2.415V72Zm-18.204-2.404h8.302v-7.87h-8.302v7.87Zm9.548-10.275H78.87a4.25 4.25 0 0 0 4.25-4.249v-3.611H2.403v3.611a4.25 4.25 0 0 0 4.25 4.25H48.173h-.01ZM2.404 49.047h80.734V6.653a4.25 4.25 0 0 0-4.25-4.249H6.654a4.25 4.25 0 0 0-4.249 4.25v42.393Z" fill="#91CCD5"/><path d="M23.316 21.52h2.228v8.116h2.699V21.52h2.227v-2.296h-7.154v2.296ZM35.524 26.329c0 .893-.216 1.53-1.246 1.53s-1.256-.637-1.256-1.53V22.55h-2.503v4.259c0 2.335 1.64 3.052 3.759 3.052 2.12 0 3.748-.717 3.748-3.052v-4.26h-2.502v3.779ZM45.112 23.248c-.52-.619-1.374-.923-2.189-.923-2.09 0-3.532 1.737-3.532 3.768 0 2.032 1.471 3.779 3.562 3.779.824 0 1.688-.314 2.13-1.021h.029v.785h2.502v-7.075h-2.502v.687Zm-1.521 4.445c-1.021 0-1.61-.687-1.61-1.59 0-.902.589-1.6 1.61-1.6 1.02 0 1.609.727 1.609 1.6 0 .874-.589 1.59-1.61 1.59ZM52.285 20.431h-2.502v2.12h-.805v2.07h.805v5.015h2.502v-5.015h1.423v-2.07h-1.423v-2.12ZM59.567 22.315c-.972 0-1.678.354-2.258 1.129h-.029v-5.27h-2.502v11.452h2.502v-3.63c0-.825.314-1.689 1.305-1.689.991 0 1.129.854 1.129 1.688v3.631h2.502v-4.328c0-1.795-.863-2.983-2.65-2.983ZM31.255 35.014h-5.152v-3.611h-.54v8.508h.54v-4.387h5.152v4.387h.54v-8.508h-.54v3.61ZM35.789 34.582c-1.511 0-2.699 1.227-2.699 2.728a2.7 2.7 0 0 0 2.699 2.709 2.708 2.708 0 0 0 2.728-2.719c0-1.54-1.207-2.718-2.728-2.718Zm-.03 4.965c-1.226 0-2.158-1.05-2.158-2.237s.922-2.257 2.159-2.257c1.236 0 2.257.972 2.257 2.257 0 1.286-.992 2.237-2.257 2.237ZM42.933 37.644c0 1-.108 1.904-1.364 1.904s-1.364-.903-1.364-1.904V34.7h-.51v3.12c0 .53-.01 1.06.314 1.502.363.471.961.697 1.55.697.589 0 1.197-.226 1.55-.697.325-.442.315-.972.315-1.501V34.7h-.5v2.944h.01ZM45.504 35.868c0-.452.452-.815.893-.815a.99.99 0 0 1 .913.589l.441-.226c-.225-.48-.794-.834-1.324-.834-.756 0-1.413.53-1.413 1.315 0 .883.814 1.187 1.52 1.443.52.176 1.011.382 1.011 1.03s-.52 1.178-1.168 1.178c-.686 0-1.099-.442-1.295-1.06l-.49.157c.215.844.922 1.374 1.785 1.374.933 0 1.679-.668 1.679-1.62 0-1.884-2.532-1.275-2.532-2.522l-.02-.01ZM50.077 34.7h-.51v5.21h.51V34.7ZM49.822 32.502a.467.467 0 0 0-.461.46.46.46 0 1 0 .461-.461ZM54.1 34.582c-.677 0-1.236.353-1.54.922h-.02v-.814h-.5v5.21h.5v-2.57c0-1.06.216-2.277 1.521-2.277 1.139 0 1.247.766 1.247 1.698v3.15h.51v-3.15c0-1.345-.373-2.179-1.708-2.179l-.01.01ZM61.716 34.7v.903h-.02c-.48-.658-1.119-1.011-1.953-1.011-1.52 0-2.59 1.207-2.59 2.708 0 1.502 1.01 2.728 2.522 2.728.785 0 1.56-.392 2.021-1.01h.02v.637c0 .697-.06 1.374-.462 1.973-.382.55-1.01.775-1.668.775-1.05 0-1.953-.677-2.011-1.756h-.51c.078 1.432 1.206 2.227 2.56 2.227.825 0 1.58-.334 2.071-1 .49-.688.52-1.414.52-2.209V34.7h-.51.01Zm-2.012 4.847c-1.256 0-2.051-1.079-2.051-2.276 0-1.129.824-2.208 2.012-2.208 1.256 0 2.08.952 2.08 2.159 0 1.207-.716 2.335-2.041 2.335v-.01Z" fill="#fff"/><path d="m57.123 16.212-2.188-2.189a.498.498 0 0 1 0-.707l2.188-2.188v5.084Z" fill="#F54C00"/><path d="M62.197 11.138 60.017 8.95a.498.498 0 0 0-.707 0l-2.188 2.188h5.074Z" fill="#FF7800"/><path d="M62.197 11.138h-5.074v5.074h4.573c.275 0 .5-.226.5-.5v-4.574Z" fill="#FFA617"/></g>
		</symbol>
		<symbol id="icon-cursor" viewBox="0 0 48 48">
			<g fill="#FF7800"><path d="M14.862 11.681a.793.793 0 0 0 1.109-.148.79.79 0 0 0-.148-1.109L9.724 5.75a.79.79 0 1 0-.96 1.257l6.098 4.68v-.006ZM26.878 14.466c.052.4.393.69.78.69.033 0 .071 0 .104-.007l7.632-1.005a.785.785 0 0 0 .677-.884.796.796 0 0 0-.89-.683l-7.632 1.006a.785.785 0 0 0-.677.883h.006ZM25.035 10.56a.79.79 0 0 0 .625-.31l4.674-6.086a.79.79 0 1 0-1.258-.96l-4.673 6.085a.79.79 0 0 0 .632 1.27ZM16.029 20.21l-4.719 6.15a.79.79 0 1 0 1.257.96l4.72-6.15a.79.79 0 1 0-1.258-.96ZM41.737 28.873l-19.9-14.053c-.451-.303-.941-.348-1.34-.116-.4.232-.607.677-.568 1.232l2.211 24.219c.058.896.574 1.192.793 1.276.206.078.748.206 1.315-.341l4.326-4.165 5.988 10.372c.175.29.432.51.735.62a1.233 1.233 0 0 0 1.044-.084l4.913-2.837c.316-.18.535-.49.6-.857.057-.323 0-.664-.168-.954l-5.989-10.366 5.77-1.664c.754-.219.915-.754.954-.973.038-.232.038-.825-.69-1.315l.006.006Zm-7.439 2.708a.788.788 0 0 0-.464 1.154l6.382 11.043-4.39 2.533-6.376-11.05a.784.784 0 0 0-.573-.386c-.039 0-.078-.006-.11-.006-.2 0-.4.077-.548.219l-4.538 4.37-2.089-22.89L40.371 29.82l-6.066 1.747-.007.013ZM14.791 16.058a.787.787 0 0 0-.89-.677l-7.658 1.006a.788.788 0 0 0-.677.89c.052.399.394.69.78.69.033 0 .071 0 .104-.007l7.658-1.006a.788.788 0 0 0 .677-.89l.006-.006ZM20.703 8.29 19.697.683a.787.787 0 0 0-.89-.676.788.788 0 0 0-.676.89l1.005 7.606c.052.4.393.69.78.69.032 0 .071 0 .103-.007a.788.788 0 0 0 .677-.89l.007-.006Z"/></g>
		</symbol>

		<symbol id="icon-twitter" viewBox="0 0 42 40">
			<path d="M20.97 0C9.918 0 .97 8.95.97 20s8.949 20 20 20c11.05 0 20-8.95 20-20s-8.961-20-20-20Zm11.143 13.291s0 .185-.116.335c-.508.67-1.062 1.282-1.744 1.778-.103.07-.265.15-.265.289 0 3.533-.924 7.067-3.545 9.63-3.349 3.257-8.36 4.146-12.806 2.945a12.724 12.724 0 0 1-2.483-.97c-.265-.139-.52-.289-.774-.45-.069-.047-.115-.093-.057-.127.057-.023.092-.035.3 0a8.973 8.973 0 0 0 3.707-.462c.646-.22 2.032-.67 2.436-1.27 0-.012.023-.012.035-.035-.162-.035-.323-.035-.485-.07-1.213-.334-2.83-.935-3.568-2.933-.046-.115 0-.173.127-.15.993.081 1.35.024 1.697-.046a3.318 3.318 0 0 1-.577-.173c-1.524-.566-2.633-2.032-2.84-3.603a2.539 2.539 0 0 1-.024-.508c0-.115.058-.15.173-.092.785.392 1.663.496 1.732.473a7.46 7.46 0 0 1-.554-.473c-1.316-1.236-1.836-3.73-.773-5.289.08-.127.138-.127.242 0 2.413 2.702 5.393 3.96 8.984 4.492.092.011.104 0 .092-.104-.092-.624-.104-1.236.046-1.848a4.549 4.549 0 0 1 .89-1.743c.404-.497.912-.9 1.49-1.19a4.644 4.644 0 0 1 1.847-.508 4.293 4.293 0 0 1 1.94.312c.462.185.877.439 1.27.762.08.07.15.15.23.231.047.046.105.07.186.046a11.66 11.66 0 0 0 2.61-.981c.034-.023.069-.035.115 0 .034.035.023.08 0 .115a4.21 4.21 0 0 1-.728 1.317c-.208.254-.727.889-1.085.947.75-.127 1.512-.312 2.205-.624.093-.035.093-.058.093 0v.023l-.023-.046Z" />
		</symbol>
		<symbol id="icon-linkedin" viewBox="0 0 41 40">
			<path d="M20.264 0c-11.043 0-20 8.957-20 20s8.957 20 20 20 20-8.957 20-20-8.958-20-20-20Zm-4.52 28.713h-3.878v-12.44h3.879v12.44Zm-1.933-14.141a2.242 2.242 0 0 1-2.248-2.248 2.232 2.232 0 0 1 2.248-2.237 2.23 2.23 0 0 1 2.236 2.237 2.247 2.247 0 0 1-2.236 2.248Zm16.424 14.14h-3.867v-6.045c0-1.444-.024-3.296-2.004-3.296s-2.318 1.573-2.318 3.192v6.15H18.18v-12.44h3.704v1.7h.047c.512-.978 1.782-2.015 3.657-2.015 3.914 0 4.636 2.574 4.636 5.929v6.826h.012Z" />
		</symbol>
		<symbol id="icon-facebook" viewBox="0 0 41 40">
			<path d="M20.682 0C9.568 0 .558 9.01.558 20.123.558 30.169 7.921 38.495 17.542 40V25.933h-5.105v-5.821h5.105v-4.434c0-5.046 2.999-7.833 7.598-7.833 2.199 0 4.504.388 4.504.388v4.951h-2.54c-2.494 0-3.282 1.553-3.282 3.14V20.1h5.587l-.894 5.822h-4.693v14.066c9.62-1.505 16.984-9.832 16.984-19.876C40.806 9.009 31.796 0 20.682 0Z" />
		</symbol>
		<symbol id="icon-youtube" viewBox="0 0 41 40">
			<g ><path d="m24.106 19.812-5.273-2.865c-.211-.118-.951.035-.951.281v5.59c0 .247.728.4.951.282l5.508-2.724c.223-.118 0-.446-.235-.564Z"/><path d="M20.853 0c-11.051 0-20 8.949-20 20s8.949 20 20 20 20-8.949 20-20-8.96-20-20-20Zm10.71 22.807a4.802 4.802 0 0 1-4.803 4.803H14.476a4.801 4.801 0 0 1-4.803-4.803v-5.72a4.802 4.802 0 0 1 4.803-4.803H26.76a4.802 4.802 0 0 1 4.803 4.803v5.72Z"/></g>
		</symbol>



















		<symbol id="icon-ID" viewBox="0 0 50 50">
			
		</symbol>
	</defs>
</svg>